<?xml version="1.0" standalone="no"?>
<!DOCTYPE svg PUBLIC "-//W3C//DTD SVG 20010904//EN"
 "http://www.w3.org/TR/2001/REC-SVG-20010904/DTD/svg10.dtd">
<svg version="1.0" xmlns="http://www.w3.org/2000/svg"
 width="700.000000pt" height="700.000000pt" viewBox="0 0 700.000000 700.000000"
 preserveAspectRatio="xMidYMid meet">
<metadata>
Created by potrace 1.14, written by Peter Selinger 2001-2017
</metadata>
<g transform="translate(0.000000,700.000000) scale(0.100000,-0.100000)"
fill="#000000" stroke="none">
<path d="M3278 6995 c-1 -1 -42 -5 -89 -9 -47 -4 -95 -8 -105 -10 -10 -2 -41
-7 -69 -10 -415 -54 -866 -208 -1245 -424 -86 -49 -301 -187 -339 -218 -9 -7
-52 -41 -96 -75 -432 -336 -819 -832 -1029 -1319 -16 -36 -35 -78 -42 -95 -54
-120 -153 -432 -180 -570 -2 -11 -10 -54 -19 -95 -29 -147 -36 -200 -52 -370
-15 -165 -8 -592 12 -711 2 -13 6 -46 9 -74 47 -409 239 -952 466 -1318 30
-48 60 -95 65 -105 24 -42 133 -191 208 -285 163 -202 344 -382 557 -552 92
-74 370 -265 386 -265 4 0 15 -6 23 -14 29 -25 305 -161 431 -213 279 -113
566 -191 839 -229 25 -3 57 -8 71 -10 163 -25 682 -25 842 1 13 2 46 7 73 10
71 10 87 13 115 18 14 3 43 8 65 12 22 4 76 16 120 27 44 10 87 21 96 23 223
51 591 200 823 334 49 28 91 51 93 51 9 0 267 179 343 239 157 122 333 287
460 430 36 41 70 79 76 85 65 68 263 353 352 508 47 80 182 351 182 364 0 3 8
24 19 47 53 118 147 417 177 562 17 81 54 301 59 350 4 33 9 71 11 85 9 47 11
525 4 605 -16 169 -22 220 -25 225 -2 3 -6 30 -10 60 -4 30 -22 123 -40 205
-269 1195 -1141 2163 -2300 2553 -168 57 -420 119 -555 137 -19 3 -46 7 -60
10 -13 2 -52 7 -86 11 -33 3 -74 8 -90 10 -33 5 -540 14 -546 9z m33 -1778
c52 -26 69 -39 209 -171 36 -33 117 -108 179 -166 63 -58 126 -116 141 -130
15 -14 78 -72 140 -130 62 -58 125 -116 140 -130 15 -14 78 -72 140 -130 62
-58 127 -118 144 -134 27 -25 116 -107 331 -307 33 -31 74 -69 90 -83 162
-146 194 -196 202 -316 8 -115 -18 -173 -121 -275 -68 -68 -226 -216 -341
-321 -16 -15 -82 -76 -146 -135 -63 -60 -125 -117 -137 -127 -12 -11 -79 -73
-149 -139 -71 -66 -141 -132 -158 -147 -16 -16 -74 -69 -129 -119 -54 -51
-113 -105 -130 -121 -17 -15 -85 -79 -151 -141 -184 -172 -196 -183 -255 -212
-76 -38 -182 -42 -257 -10 -106 46 -174 125 -198 231 -8 37 -11 446 -10 1521
l2 1470 22 50 c42 95 106 154 201 189 67 24 173 17 241 -17z"/>
</g>
</svg>
